<?xml version="1.0" standalone="no" ?>
<!DOCTYPE svg PUBLIC "-//W3C//DTD SVG 1.1//EN" "http://www.w3.org/Graphics/SVG/1.1/DTD/svg11.dtd">
<svg width="500px" height="500px" xmlns="http://www.w3.org/2000/svg" version="1.1" >
	<polygon points="0,500 500,500 500,0 0,0 " fill="none" stroke-width="1" stroke="rgb(255,0,0)" />
	<polyline points="5,495 15,465 25,455 35,450 45,451 " fill="none" stroke-width="0.5" stroke="rgb(0,0,255)" />
	<circle cx="5" cy="495" r="0.75" fill="rgb(0,0,0)" />
	<circle cx="15" cy="465" r="0.75" fill="rgb(0,0,0)" />
	<circle cx="25" cy="455" r="0.75" fill="rgb(0,0,0)" />
	<circle cx="35" cy="450" r="0.75" fill="rgb(0,0,0)" />
	<circle cx="45" cy="451" r="0.75" fill="rgb(0,0,0)" />
	<polyline points="5,485 15,473 25,465 35,463 45,465 " fill="none" stroke-width="0.5" stroke="rgb(0,255,255)" />
	<circle cx="5" cy="485" r="0.75" fill="rgb(0,0,0)" />
	<circle cx="15" cy="473" r="0.75" fill="rgb(0,0,0)" />
	<circle cx="25" cy="465" r="0.75" fill="rgb(0,0,0)" />
	<circle cx="35" cy="463" r="0.75" fill="rgb(0,0,0)" />
	<circle cx="45" cy="465" r="0.75" fill="rgb(0,0,0)" />
	<polyline points="5,483 15,480 25,481 35,485 45,493 " fill="none" stroke-width="0.5" stroke="rgb(255,0,255)" />
	<circle cx="5" cy="483" r="0.75" fill="rgb(0,0,0)" />
	<circle cx="15" cy="480" r="0.75" fill="rgb(0,0,0)" />
	<circle cx="25" cy="481" r="0.75" fill="rgb(0,0,0)" />
	<circle cx="35" cy="485" r="0.75" fill="rgb(0,0,0)" />
	<circle cx="45" cy="493" r="0.75" fill="rgb(0,0,0)" />
	<polyline points="5,445.5 5,495 49,495 " fill="none" stroke-width="0.5" stroke="rgb(128,0,128)" />
	<polyline points="65,495 75,487 85,482 " fill="none" stroke-width="0.5" stroke="rgb(0,0,255)" />
	<circle cx="65" cy="495" r="0.333333" fill="rgb(0,0,0)" />
	<circle cx="75" cy="487" r="0.333333" fill="rgb(0,0,0)" />
	<circle cx="85" cy="482" r="0.333333" fill="rgb(0,0,0)" />
	<polyline points="65,485 75,479 85,475 " fill="none" stroke-width="0.5" stroke="rgb(255,165,0)" />
	<circle cx="65" cy="485" r="0.333333" fill="rgb(0,0,0)" />
	<circle cx="75" cy="479" r="0.333333" fill="rgb(0,0,0)" />
	<circle cx="85" cy="475" r="0.333333" fill="rgb(0,0,0)" />
	<polyline points="65,490 75,482 85,479 " fill="none" stroke-width="0.5" stroke="rgb(0,255,255)" />
	<circle cx="65" cy="490" r="0.333333" fill="rgb(0,0,0)" />
	<circle cx="75" cy="482" r="0.333333" fill="rgb(0,0,0)" />
	<circle cx="85" cy="479" r="0.333333" fill="rgb(0,0,0)" />
	<polyline points="65,473 65,495 87,495 " fill="none" stroke-width="0.5" stroke="rgb(128,0,128)" />
	<circle cx="80" cy="420" r="10" fill="rgb(100,200,120)" stroke-width="1" stroke="rgb(200,250,150)" />
	<text x="5" y="423" fill="rgb(192,192,192)" font-size="10" font-family="Verdana" >Simple SVG</text>
	<polygon points="20,430 25,428 33,430 35,440 25,445 18,437 " fill="rgb(200,160,220)" stroke-width="0.5" stroke="rgb(150,160,200)" />
	<rect x="70" y="445" width="20" height="15" fill="rgb(255,255,0)" />
</svg>
